<svg width="103" height="24" viewBox="0 0 103 24" fill="none" xmlns="http://www.w3.org/2000/svg"> <path d="M12.7265 23.4927C12.3872 23.4927 12.3023 23.4082 12.2175 23.1547L8.22982 14.7885H5.17545C5.00576 14.7885 5.00576 14.873 5.00576 14.9575V23.1547C5.00576 23.3237 4.83608 23.4927 4.66639 23.4927H0.339369C0.169682 23.4927 0 23.3237 0 23.1547V0.929332C0 0.760318 0.169682 0.591309 0.339369 0.591309H9.50247C14.1689 0.591309 17.3081 3.54905 17.3081 7.68989C17.3081 10.6476 15.7809 12.9293 13.2356 14.0279L17.7323 23.0702C17.8171 23.2392 17.7323 23.4927 17.4778 23.4927H12.7265ZM12.3872 7.68989C12.3872 5.99975 11.1993 4.90117 9.24794 4.90117H5.17545C5.00576 4.90117 5.00576 4.98567 5.00576 5.07018V10.3941C5.00576 10.5631 5.0906 10.5631 5.17545 10.5631H9.24794C11.1145 10.5631 12.3872 9.46454 12.3872 7.68989Z" fill="#232382"/> <path d="M44.9671 20.7041C44.7974 20.5351 44.7974 20.3661 44.9671 20.1126L47.5124 17.1548C47.6821 16.9858 47.8518 16.9858 48.0215 17.1548C49.5487 18.3379 51.5849 19.521 54.0453 19.521C56.421 19.521 57.7785 18.4224 57.7785 16.8168C57.7785 15.4647 56.93 14.6196 54.215 14.2816L53.0272 14.1126C48.3608 13.4365 45.7307 11.3238 45.7307 7.2675C45.7307 3.04215 48.8699 0.253418 53.8757 0.253418C56.93 0.253418 59.7299 1.18299 61.6813 2.61961C61.8509 2.78863 61.9358 2.87314 61.7661 3.12666L59.7299 6.16891C59.5602 6.33792 59.3905 6.33792 59.2208 6.25342C57.4391 5.07032 55.7422 4.47877 53.8757 4.47877C51.8394 4.47877 50.8213 5.49286 50.8213 6.92947C50.8213 8.28159 51.7546 9.04215 54.3847 9.46469L55.5725 9.6337C60.3238 10.3098 62.7842 12.4224 62.7842 16.5633C62.7842 20.7041 59.7299 23.7464 53.7908 23.7464C50.2274 23.8309 46.7488 22.3943 44.9671 20.7041Z" fill="#232382"/> <path d="M66.0078 0.929332C66.0078 0.760318 66.1775 0.591309 66.3472 0.591309H81.11C81.2797 0.591309 81.4493 0.760318 81.4493 0.929332V4.56314C81.4493 4.73215 81.2797 4.90117 81.11 4.90117H71.1833C71.0136 4.90117 71.0136 4.98567 71.0136 5.07018V9.63356C71.0136 9.80257 71.0984 9.80257 71.1833 9.80257H78.904C79.0737 9.80257 79.2434 9.97159 79.2434 10.1406V13.6899C79.2434 13.8589 79.0737 14.0279 78.904 14.0279H71.1833C71.0136 14.0279 71.0136 14.1124 71.0136 14.1969V18.9293C71.0136 19.0983 71.0984 19.0983 71.1833 19.0983H81.11C81.2797 19.0983 81.4493 19.2674 81.4493 19.4364V23.0702C81.4493 23.2392 81.2797 23.4082 81.11 23.4082H66.3472C66.1775 23.4082 66.0078 23.2392 66.0078 23.0702V0.929332Z" fill="#232382"/> <path d="M84.9287 0.929332C84.9287 0.760318 85.0984 0.591309 85.2681 0.591309H89.3406C89.5951 0.591309 89.7648 0.67581 89.9345 0.929332L98.334 15.2955H98.5037V0.929332C98.5037 0.760318 98.6734 0.591309 98.843 0.591309H102.661C102.831 0.591309 103 0.760318 103 0.929332V23.1547C103 23.3237 102.831 23.4927 102.661 23.4927H98.6733C98.4188 23.4927 98.2491 23.4082 98.0795 23.1547L89.5951 8.78849H89.4254V23.1547C89.4254 23.3237 89.2557 23.4927 89.086 23.4927H85.2681C85.0984 23.4927 84.9287 23.3237 84.9287 23.1547V0.929332Z" fill="#232382"/> <path d="M19.3447 11.9997C19.3447 13.0983 19.5144 14.1969 19.7689 15.211C19.8538 15.549 20.0235 15.549 20.278 15.38C20.6174 15.1265 25.3686 12.2533 25.3686 12.2533C25.7928 11.9997 25.7928 11.8307 25.3686 11.6617C25.3686 11.6617 20.7022 8.78847 20.278 8.53495C20.0235 8.36594 19.8538 8.45044 19.7689 8.70396C19.5144 9.80256 19.3447 10.9012 19.3447 11.9997Z" fill="#B1162E"/> <path d="M31.3926 24C38.0104 24 43.4404 18.6761 43.4404 12C43.4404 5.40845 38.0953 0 31.3926 0C27.0656 0 23.2476 2.28169 21.1266 5.74648C21.0417 5.91549 21.0417 6.08451 21.2114 6.16902L24.69 8.3662C24.8597 8.53521 25.1142 8.4507 25.199 8.28169C26.4717 6.16901 28.7625 4.73239 31.3926 4.73239C35.3803 4.73239 38.6043 7.94366 38.6043 11.9155C38.6043 15.8873 35.3803 19.0986 31.3926 19.0986C28.7625 19.0986 26.3869 17.662 25.1142 15.5493C25.0294 15.3803 24.7748 15.3803 24.6051 15.4648L21.1266 17.662C20.9569 17.831 20.872 17.9155 21.0417 18.0845C23.1628 21.6338 26.9808 24 31.3926 24Z" fill="#232382"/> </svg>
